<svg width="1050" height="429" viewBox="0 0 1050 429" fill="none" xmlns="http://www.w3.org/2000/svg">
<circle cx="236.5" cy="145.5" r="145.5" fill="#3661CE"/>
<path d="M62.1207 290.212C58.2717 290.2 55.879 286.026 57.8139 282.699L142.705 136.712C144.64 133.384 149.451 133.399 151.366 136.739L235.348 283.25C237.262 286.59 234.844 290.749 230.995 290.737L62.1207 290.212Z" fill="#3661CE"/>
<path d="M201 294.5C378.5 315.5 404 153 383 98C555.5 232.5 393 450 201 294.5Z" fill="#63FF49" stroke="#63FF49"/>
<path d="M323.311 345.742C320.265 345.735 318.345 342.461 319.825 339.799L392.554 208.954C394.058 206.248 397.934 206.204 399.501 208.874L476.47 340.08C478.036 342.75 476.106 346.111 473.01 346.104L323.311 345.742Z" fill="#63FF49"/>
<rect x="292" y="101" width="22" height="98" fill="white"/>
<rect x="158" y="101" width="22" height="98" fill="white"/>
<rect x="192" y="101" width="88" height="98" fill="white"/>
<path d="M207 84C207 81.2386 209.239 79 212 79H258C260.761 79 263 81.2386 263 84V87H207V84Z" fill="white"/>
<rect x="207" y="87" width="8" height="14" fill="white"/>
<rect x="255" y="87" width="8" height="14" fill="white"/>
<path d="M479.97 199.959C474.963 199.959 470.798 198.936 467.474 196.891C464.171 194.824 461.827 191.905 460.442 188.134C459.058 184.341 458.759 179.866 459.548 174.71C460.293 169.639 461.923 165.197 464.438 161.383C466.973 157.569 470.169 154.597 474.026 152.466C477.903 150.335 482.229 149.27 487.001 149.27C490.197 149.27 493.106 149.781 495.727 150.804C498.347 151.805 500.553 153.339 502.342 155.406C504.132 157.473 505.379 160.072 506.082 163.205C506.785 166.315 506.817 169.969 506.178 174.167L505.666 177.842H464.501L465.684 169.565H494.448C494.746 167.562 494.587 165.772 493.969 164.195C493.351 162.619 492.339 161.383 490.933 160.488C489.548 159.593 487.843 159.146 485.819 159.146C483.731 159.146 481.792 159.657 480.002 160.68C478.234 161.702 476.753 163.045 475.56 164.707C474.366 166.347 473.61 168.116 473.29 170.012L471.98 178.13C471.597 180.815 471.735 183.041 472.396 184.81C473.056 186.578 474.164 187.899 475.719 188.773C477.296 189.646 479.278 190.083 481.664 190.083C483.219 190.083 484.668 189.87 486.011 189.444C487.374 188.996 488.578 188.336 489.622 187.462C490.688 186.589 491.55 185.513 492.211 184.234L504.228 185.161C503.12 188.144 501.415 190.744 499.114 192.96C496.835 195.175 494.075 196.901 490.837 198.137C487.598 199.352 483.976 199.959 479.97 199.959ZM546.775 166.784L545.241 177.267H515.454L517.02 166.784H546.775ZM604.12 154.639C603.907 153.041 603.502 151.624 602.905 150.388C602.33 149.153 601.542 148.098 600.54 147.224C599.56 146.33 598.367 145.658 596.961 145.211C595.576 144.742 593.978 144.508 592.167 144.508C588.779 144.508 585.615 145.349 582.674 147.033C579.755 148.716 577.284 151.177 575.26 154.415C573.235 157.633 571.882 161.564 571.201 166.209C570.498 170.854 570.572 174.806 571.424 178.066C572.298 181.326 573.875 183.808 576.154 185.513C578.434 187.196 581.321 188.038 584.816 188.038C587.99 188.038 590.835 187.462 593.349 186.312C595.885 185.14 597.951 183.499 599.549 181.39C601.147 179.259 602.149 176.756 602.554 173.879L605.27 174.295H588.203L589.738 164.163H616.904L615.657 172.313C614.826 178.023 612.898 182.945 609.873 187.079C606.847 191.191 603.044 194.355 598.463 196.571C593.882 198.787 588.853 199.895 583.377 199.895C577.262 199.895 572.096 198.542 567.877 195.836C563.679 193.109 560.664 189.241 558.832 184.234C557 179.206 556.595 173.24 557.618 166.337C558.406 161.031 559.876 156.301 562.028 152.146C564.201 147.97 566.886 144.433 570.082 141.536C573.278 138.638 576.836 136.433 580.757 134.92C584.677 133.407 588.8 132.651 593.125 132.651C596.79 132.651 600.135 133.183 603.161 134.249C606.186 135.314 608.786 136.827 610.959 138.787C613.154 140.747 614.826 143.07 615.977 145.754C617.149 148.439 617.724 151.401 617.703 154.639H604.12ZM621.977 199L629.328 149.909H642.048L640.77 158.379H641.281C642.624 155.396 644.477 153.126 646.843 151.571C649.208 149.994 651.775 149.206 654.545 149.206C655.227 149.206 655.941 149.249 656.686 149.334C657.453 149.398 658.135 149.494 658.732 149.621L656.942 161.383C656.367 161.191 655.536 161.021 654.449 160.871C653.362 160.722 652.329 160.648 651.349 160.648C649.346 160.648 647.482 161.085 645.756 161.958C644.051 162.832 642.624 164.046 641.473 165.602C640.323 167.157 639.577 168.947 639.236 170.971L635.081 199H621.977ZM678.395 199.959C673.431 199.959 669.297 198.893 665.995 196.763C662.713 194.632 660.38 191.649 658.995 187.814C657.61 183.979 657.291 179.515 658.037 174.423C658.761 169.394 660.359 164.994 662.831 161.223C665.324 157.452 668.509 154.522 672.387 152.434C676.286 150.325 680.686 149.27 685.586 149.27C690.529 149.27 694.642 150.346 697.923 152.498C701.225 154.629 703.569 157.612 704.954 161.447C706.36 165.282 706.691 169.746 705.945 174.838C705.199 179.866 703.569 184.266 701.055 188.038C698.562 191.788 695.377 194.717 691.499 196.827C687.642 198.915 683.275 199.959 678.395 199.959ZM679.546 189.732C681.932 189.732 684.031 189.06 685.842 187.718C687.653 186.376 689.145 184.543 690.316 182.221C691.488 179.898 692.287 177.278 692.713 174.359C693.14 171.504 693.118 168.947 692.65 166.688C692.202 164.43 691.297 162.651 689.933 161.351C688.591 160.03 686.758 159.369 684.436 159.369C682.049 159.369 679.94 160.051 678.108 161.415C676.275 162.757 674.784 164.589 673.633 166.912C672.483 169.234 671.694 171.855 671.268 174.774C670.842 177.629 670.842 180.186 671.268 182.445C671.716 184.682 672.621 186.461 673.985 187.782C675.37 189.082 677.223 189.732 679.546 189.732ZM719.999 199L713.895 149.909H727.159L730.035 183.276H730.482L743.618 149.909H756.69L759.918 183.052H760.365L773.085 149.909H786.381L765.543 199H751.704L747.773 167.583H747.134L733.838 199H719.999ZM819.5 149.909L817.998 159.817H788.754L790.256 149.909H819.5ZM798.757 138.148H811.861L805.022 183.979C804.83 185.321 804.883 186.354 805.181 187.079C805.48 187.803 805.97 188.304 806.652 188.581C807.333 188.858 808.132 188.996 809.049 188.996C809.709 188.996 810.359 188.943 810.998 188.837C811.659 188.709 812.159 188.613 812.5 188.549L813.172 198.425C812.426 198.659 811.424 198.904 810.167 199.16C808.91 199.437 807.419 199.607 805.693 199.671C802.475 199.778 799.716 199.33 797.415 198.329C795.135 197.327 793.473 195.783 792.429 193.695C791.407 191.607 791.151 188.986 791.662 185.832L798.757 138.148ZM839.699 170.523L835.448 199H822.344L832.124 133.545H844.876L841.201 158.506H841.744C843.278 155.63 845.398 153.371 848.104 151.731C850.81 150.09 854.049 149.27 857.82 149.27C861.208 149.27 864.063 150.005 866.385 151.475C868.708 152.945 870.37 155.055 871.371 157.803C872.373 160.552 872.586 163.865 872.01 167.743L867.28 199H854.176L858.523 170.012C858.971 166.923 858.534 164.515 857.213 162.789C855.892 161.063 853.825 160.2 851.012 160.2C849.095 160.2 847.337 160.616 845.739 161.447C844.162 162.256 842.841 163.428 841.776 164.962C840.732 166.496 840.039 168.35 839.699 170.523Z" fill="#3661CE"/>
<path d="M482.68 234.216C482.263 237.02 481.385 239.402 480.047 241.362C478.709 243.314 477.064 244.801 475.112 245.824C473.169 246.847 471.068 247.358 468.81 247.358C466.449 247.358 464.403 246.817 462.673 245.734C460.952 244.652 459.695 243.088 458.902 241.043C458.118 238.997 457.939 236.534 458.365 233.653C458.783 230.849 459.656 228.467 460.986 226.507C462.324 224.538 463.973 223.038 465.933 222.007C467.893 220.976 470.011 220.46 472.287 220.46C474.639 220.46 476.672 221.006 478.385 222.097C480.107 223.179 481.359 224.747 482.143 226.801C482.936 228.855 483.115 231.327 482.68 234.216ZM477.375 233.653C477.639 231.812 477.592 230.266 477.234 229.013C476.885 227.76 476.267 226.814 475.381 226.175C474.503 225.527 473.408 225.203 472.095 225.203C470.68 225.203 469.389 225.557 468.222 226.264C467.054 226.963 466.074 227.986 465.281 229.332C464.497 230.67 463.964 232.298 463.683 234.216C463.393 236.057 463.432 237.599 463.798 238.844C464.165 240.088 464.791 241.03 465.678 241.669C466.572 242.3 467.672 242.615 468.976 242.615C470.382 242.615 471.665 242.27 472.824 241.58C473.991 240.881 474.967 239.866 475.751 238.537C476.544 237.199 477.085 235.571 477.375 233.653ZM484.972 247L488.884 220.818H499.086C501.071 220.818 502.703 221.193 503.982 221.943C505.26 222.693 506.164 223.733 506.692 225.062C507.229 226.392 507.37 227.918 507.114 229.639C506.858 231.369 506.262 232.895 505.324 234.216C504.387 235.537 503.155 236.568 501.63 237.31C500.113 238.051 498.344 238.422 496.324 238.422H489.766L490.405 234.114H496.132C497.232 234.114 498.165 233.926 498.932 233.551C499.708 233.168 500.317 232.639 500.76 231.966C501.203 231.293 501.489 230.517 501.617 229.639C501.745 228.753 501.685 227.977 501.438 227.312C501.191 226.648 500.739 226.132 500.083 225.766C499.435 225.399 498.561 225.216 497.462 225.216H493.576L490.316 247H484.972ZM508.245 247L512.157 220.818H522.359C524.345 220.818 525.977 221.193 527.255 221.943C528.534 222.693 529.437 223.733 529.966 225.062C530.502 226.392 530.643 227.918 530.387 229.639C530.132 231.369 529.535 232.895 528.598 234.216C527.66 235.537 526.429 236.568 524.903 237.31C523.386 238.051 521.618 238.422 519.598 238.422H513.039L513.679 234.114H519.406C520.505 234.114 521.439 233.926 522.206 233.551C522.981 233.168 523.591 232.639 524.034 231.966C524.477 231.293 524.762 230.517 524.89 229.639C525.018 228.753 524.958 227.977 524.711 227.312C524.464 226.648 524.012 226.132 523.356 225.766C522.708 225.399 521.835 225.216 520.735 225.216H516.849L513.589 247H508.245ZM557.317 234.216C556.9 237.02 556.022 239.402 554.684 241.362C553.346 243.314 551.701 244.801 549.749 245.824C547.806 246.847 545.705 247.358 543.446 247.358C541.086 247.358 539.04 246.817 537.31 245.734C535.588 244.652 534.331 243.088 533.539 241.043C532.755 238.997 532.576 236.534 533.002 233.653C533.419 230.849 534.293 228.467 535.623 226.507C536.961 224.538 538.61 223.038 540.57 222.007C542.53 220.976 544.648 220.46 546.924 220.46C549.276 220.46 551.309 221.006 553.022 222.097C554.743 223.179 555.996 224.747 556.78 226.801C557.573 228.855 557.752 231.327 557.317 234.216ZM552.012 233.653C552.276 231.812 552.229 230.266 551.871 229.013C551.522 227.76 550.904 226.814 550.017 226.175C549.14 225.527 548.044 225.203 546.732 225.203C545.317 225.203 544.026 225.557 542.858 226.264C541.691 226.963 540.711 227.986 539.918 229.332C539.134 230.67 538.601 232.298 538.32 234.216C538.03 236.057 538.069 237.599 538.435 238.844C538.801 240.088 539.428 241.03 540.314 241.669C541.209 242.3 542.309 242.615 543.613 242.615C545.019 242.615 546.301 242.27 547.461 241.58C548.628 240.881 549.604 239.866 550.388 238.537C551.181 237.199 551.722 235.571 552.012 233.653ZM559.609 247L563.521 220.818H573.722C575.708 220.818 577.344 221.168 578.631 221.866C579.918 222.565 580.83 223.554 581.367 224.832C581.904 226.111 582.049 227.611 581.802 229.332C581.546 231.054 580.954 232.537 580.025 233.781C579.096 235.017 577.873 235.972 576.356 236.645C574.847 237.31 573.087 237.642 571.076 237.642H564.147L564.812 233.321H570.91C571.992 233.321 572.913 233.172 573.671 232.874C574.43 232.575 575.026 232.132 575.461 231.544C575.896 230.947 576.177 230.21 576.305 229.332C576.433 228.437 576.364 227.687 576.1 227.082C575.844 226.469 575.384 226.004 574.719 225.689C574.055 225.374 573.181 225.216 572.099 225.216H568.212L564.952 247H559.609ZM575.371 235.098L580.089 247H574.183L569.593 235.098H575.371ZM585.573 225.241L586.251 220.818H607.6L606.935 225.241H598.907L595.66 247H590.367L593.614 225.241H585.573ZM627.511 220.818H632.855L630.311 237.847C630.03 239.747 629.331 241.413 628.214 242.845C627.107 244.277 625.679 245.389 623.932 246.182C622.193 246.974 620.246 247.371 618.089 247.371C615.925 247.371 614.092 246.974 612.592 246.182C611.092 245.389 610.001 244.277 609.32 242.845C608.638 241.413 608.438 239.747 608.719 237.847L611.263 220.818H616.607L614.126 237.386C613.982 238.409 614.075 239.317 614.408 240.109C614.74 240.902 615.281 241.524 616.031 241.976C616.781 242.428 617.706 242.653 618.805 242.653C619.905 242.653 620.898 242.428 621.784 241.976C622.679 241.524 623.408 240.902 623.97 240.109C624.533 239.317 624.886 238.409 625.031 237.386L627.511 220.818ZM659.357 220.818L655.445 247H650.804L641.714 230.202H641.51L638.991 247H633.648L637.56 220.818H642.264L651.315 237.616H651.545L654.038 220.818H659.357ZM669.411 220.818L665.499 247H660.156L664.067 220.818H669.411ZM672.409 225.241L673.087 220.818H694.436L693.771 225.241H685.743L682.496 247H677.203L680.45 225.241H672.409ZM703.442 220.818L699.531 247H694.187L698.099 220.818H703.442ZM704.241 247L708.153 220.818H725.642L724.977 225.241H712.832L711.874 231.685H723.124L722.446 236.108H711.209L710.25 242.577H722.459L721.794 247H704.241ZM743.227 228.348C743.252 227.257 742.915 226.418 742.217 225.83C741.526 225.233 740.508 224.935 739.161 224.935C738.232 224.935 737.427 225.067 736.745 225.331C736.063 225.595 735.518 225.957 735.109 226.418C734.708 226.869 734.465 227.393 734.38 227.99C734.295 228.467 734.337 228.889 734.508 229.256C734.678 229.614 734.942 229.925 735.3 230.189C735.658 230.445 736.08 230.666 736.566 230.854C737.052 231.033 737.563 231.186 738.1 231.314L740.388 231.889C741.454 232.136 742.425 232.469 743.303 232.886C744.19 233.304 744.94 233.824 745.553 234.446C746.167 235.06 746.61 235.788 746.883 236.632C747.156 237.476 747.211 238.452 747.049 239.56C746.81 241.136 746.201 242.513 745.221 243.689C744.249 244.857 742.962 245.764 741.36 246.412C739.766 247.051 737.908 247.371 735.786 247.371C733.69 247.371 731.913 247.051 730.455 246.412C729.006 245.764 727.941 244.814 727.259 243.561C726.586 242.3 726.364 240.744 726.594 238.895H731.785C731.708 239.781 731.853 240.518 732.219 241.107C732.594 241.695 733.14 242.138 733.856 242.436C734.58 242.726 735.428 242.871 736.4 242.871C737.363 242.871 738.219 242.73 738.969 242.449C739.728 242.168 740.342 241.776 740.81 241.273C741.288 240.77 741.573 240.19 741.667 239.534C741.761 238.929 741.658 238.422 741.36 238.013C741.07 237.595 740.606 237.241 739.967 236.952C739.336 236.662 738.565 236.402 737.653 236.172L734.879 235.443C732.765 234.898 731.158 234.058 730.059 232.925C728.968 231.783 728.563 230.253 728.844 228.335C729.083 226.759 729.714 225.382 730.737 224.206C731.768 223.021 733.072 222.101 734.648 221.445C736.234 220.788 737.977 220.46 739.877 220.46C741.795 220.46 743.423 220.793 744.761 221.457C746.099 222.122 747.083 223.047 747.714 224.232C748.344 225.408 748.558 226.78 748.353 228.348H743.227ZM758.241 247L762.153 220.818H779.348L778.683 225.241H766.832L765.874 231.685H776.574L775.909 236.108H765.209L763.585 247H758.241ZM805.098 234.216C804.681 237.02 803.803 239.402 802.465 241.362C801.127 243.314 799.482 244.801 797.53 245.824C795.587 246.847 793.486 247.358 791.228 247.358C788.867 247.358 786.821 246.817 785.091 245.734C783.37 244.652 782.113 243.088 781.32 241.043C780.536 238.997 780.357 236.534 780.783 233.653C781.201 230.849 782.074 228.467 783.404 226.507C784.742 224.538 786.391 223.038 788.351 222.007C790.311 220.976 792.429 220.46 794.705 220.46C797.057 220.46 799.09 221.006 800.803 222.097C802.525 223.179 803.777 224.747 804.561 226.801C805.354 228.855 805.533 231.327 805.098 234.216ZM799.793 233.653C800.057 231.812 800.01 230.266 799.652 229.013C799.303 227.76 798.685 226.814 797.799 226.175C796.921 225.527 795.826 225.203 794.513 225.203C793.098 225.203 791.807 225.557 790.64 226.264C789.472 226.963 788.492 227.986 787.699 229.332C786.915 230.67 786.382 232.298 786.101 234.216C785.811 236.057 785.85 237.599 786.216 238.844C786.583 240.088 787.209 241.03 788.096 241.669C788.99 242.3 790.09 242.615 791.394 242.615C792.8 242.615 794.083 242.27 795.242 241.58C796.409 240.881 797.385 239.866 798.169 238.537C798.962 237.199 799.503 235.571 799.793 233.653ZM807.39 247L811.302 220.818H821.504C823.489 220.818 825.126 221.168 826.413 221.866C827.7 222.565 828.612 223.554 829.148 224.832C829.685 226.111 829.83 227.611 829.583 229.332C829.327 231.054 828.735 232.537 827.806 233.781C826.877 235.017 825.654 235.972 824.137 236.645C822.629 237.31 820.869 237.642 818.857 237.642H811.928L812.593 233.321H818.691C819.773 233.321 820.694 233.172 821.452 232.874C822.211 232.575 822.808 232.132 823.242 231.544C823.677 230.947 823.958 230.21 824.086 229.332C824.214 228.437 824.146 227.687 823.881 227.082C823.626 226.469 823.165 226.004 822.501 225.689C821.836 225.374 820.962 225.216 819.88 225.216H815.994L812.734 247H807.39ZM823.153 235.098L827.87 247H821.964L817.374 235.098H823.153ZM839.628 247L843.54 220.818H861.029L860.364 225.241H848.219L847.26 231.685H858.51L857.833 236.108H846.596L845.637 242.577H857.846L857.181 247H839.628ZM869.984 220.818L873.436 240.876H873.691L883.126 220.818H889.045L876.056 247H869.217L864.052 220.818H869.984ZM888.355 247L892.267 220.818H909.755L909.091 225.241H896.946L895.987 231.685H907.237L906.559 236.108H895.322L894.363 242.577H906.572L905.907 247H888.355ZM910.363 247L914.275 220.818H924.476C926.462 220.818 928.098 221.168 929.385 221.866C930.672 222.565 931.584 223.554 932.121 224.832C932.658 226.111 932.803 227.611 932.556 229.332C932.3 231.054 931.708 232.537 930.779 233.781C929.85 235.017 928.627 235.972 927.11 236.645C925.601 237.31 923.841 237.642 921.83 237.642H914.901L915.566 233.321H921.664C922.746 233.321 923.667 233.172 924.425 232.874C925.184 232.575 925.78 232.132 926.215 231.544C926.65 230.947 926.931 230.21 927.059 229.332C927.186 228.437 927.118 227.687 926.854 227.082C926.598 226.469 926.138 226.004 925.473 225.689C924.809 225.374 923.935 225.216 922.853 225.216H918.966L915.706 247H910.363ZM926.125 235.098L930.843 247H924.936L920.347 235.098H926.125ZM935.352 220.818H941.348L945.733 232.17H946.001L953.749 220.818H959.757L947.702 237.616L946.295 247H940.977L942.384 237.616L935.352 220.818ZM983.165 234.216C982.747 237.02 981.869 239.402 980.531 241.362C979.193 243.314 977.548 244.801 975.597 245.824C973.653 246.847 971.553 247.358 969.294 247.358C966.933 247.358 964.888 246.817 963.158 245.734C961.436 244.652 960.179 243.088 959.386 241.043C958.602 238.997 958.423 236.534 958.849 233.653C959.267 230.849 960.141 228.467 961.47 226.507C962.808 224.538 964.457 223.038 966.418 222.007C968.378 220.976 970.496 220.46 972.771 220.46C975.124 220.46 977.156 221.006 978.869 222.097C980.591 223.179 981.844 224.747 982.628 226.801C983.42 228.855 983.599 231.327 983.165 234.216ZM977.859 233.653C978.124 231.812 978.077 230.266 977.719 229.013C977.369 227.76 976.751 226.814 975.865 226.175C974.987 225.527 973.892 225.203 972.58 225.203C971.165 225.203 969.874 225.557 968.706 226.264C967.538 226.963 966.558 227.986 965.766 229.332C964.982 230.67 964.449 232.298 964.168 234.216C963.878 236.057 963.916 237.599 964.283 238.844C964.649 240.088 965.276 241.03 966.162 241.669C967.057 242.3 968.156 242.615 969.46 242.615C970.866 242.615 972.149 242.27 973.308 241.58C974.476 240.881 975.452 239.866 976.236 238.537C977.028 237.199 977.57 235.571 977.859 233.653ZM1011.17 220.818L1007.25 247H1002.61L993.523 230.202H993.319L990.8 247H985.456L989.368 220.818H994.073L1003.12 237.616H1003.35L1005.85 220.818H1011.17ZM1011.96 247L1015.88 220.818H1033.36L1032.7 225.241H1020.56L1019.6 231.685H1030.85L1030.17 236.108H1018.93L1017.97 242.577H1030.18L1029.52 247H1011.96Z" fill="#3661CE"/>
</svg>
